<svg xmlns="http://www.w3.org/2000/svg" xmlns:xlink="http://www.w3.org/1999/xlink" width="1360" height="1151" viewBox="0 0 1360 1151"><defs><linearGradient id="a" x1="0.5" x2="0.5" y2="1" gradientUnits="objectBoundingBox"><stop offset="0" stop-color="#fff"/><stop offset="1" stop-color="#f5f5f5"/></linearGradient></defs><path d="M0,0H1360a0,0,0,0,1,0,0V1081a6,6,0,0,1-6,6H6a6,6,0,0,1-6-6V0A0,0,0,0,1,0,0Z" transform="translate(0 64)" fill="#fff"/><path d="M6,0H1354a6,6,0,0,1,6,6V88a0,0,0,0,1,0,0H0a0,0,0,0,1,0,0V6A6,6,0,0,1,6,0Z" fill="url(#a)"/><path d="M24.992,30,14.688,6.064h-4.16L.256,30H5.664l1.984-4.608H17.6L19.552,30ZM9.408,21.36l3.232-7.648,3.232,7.648ZM35.68,13.136a5,5,0,0,0-4.448,2.016v-1.7H26.816V30h4.672V20.816a3.03,3.03,0,0,1,3.072-3.328c1.792,0,2.912,1.184,2.912,3.3V30h4.672V19.888C42.144,15.6,39.488,13.136,35.68,13.136Zm15.9,4.352h3.9V13.456H51.616l.032-5.472H46.976l-.032,5.472H43.9v4.032h3.008l-.032,7.264c-.032,3.84,2.432,5.568,6.016,5.568a15.559,15.559,0,0,0,2.592-.192v-4.16a6.908,6.908,0,0,1-1.44.16,2.282,2.282,0,0,1-2.5-2.5Zm21.888,5.728V21.36c0-5.152-3.136-8.224-7.9-8.224-4.928,0-8.416,3.264-8.416,8.608,0,5.312,3.488,8.608,8.544,8.608,3.872,0,7.04-2.24,7.616-5.376l-4.7-.224c-.352,1.152-1.408,1.824-3.04,1.824a3.234,3.234,0,0,1-3.456-3.36Zm-7.936-6.432c2.112,0,3.136,1.312,3.232,3.328H62.112A3.232,3.232,0,0,1,65.536,16.784ZM78.784,5.232A2.814,2.814,0,0,0,76,8.048a2.8,2.8,0,0,0,5.6,0A2.8,2.8,0,0,0,78.784,5.232ZM81.12,30V13.456H76.448V30ZM89.7,30V5.136H85.024V30ZM108.288,5.712c-5.728,0-8.512,3.392-8.512,7.328,0,4.64,3.584,5.888,7.9,6.976,3.2.8,4.928,1.472,4.928,3.3,0,1.952-1.568,2.752-3.776,2.752-2.592,0-4.48-1.472-4.576-3.648l-5.024.256c.064,4.96,4.064,7.68,9.6,7.68,4.8,0,8.8-2.24,8.8-7.328,0-4.256-3.232-5.792-8.128-7.04-3.3-.768-4.672-1.28-4.672-3.1,0-1.7,1.28-2.88,3.552-2.88s3.68,1.312,3.712,3.328l5.056-.256C117.024,8.464,113.472,5.712,108.288,5.712ZM135.232,30V13.456H130.56V22.8c0,1.856-1.024,3.2-2.816,3.2-1.824,0-2.656-1.12-2.656-3.136V13.456h-4.672v10.4c0,4.032,2.3,6.5,6.112,6.5a4.73,4.73,0,0,0,4.288-2.016V30Zm11.456-16.864c-4.9,0-8.48,3.168-8.48,8.608,0,5.408,3.616,8.608,8.48,8.608,4.064,0,7.2-2.4,7.84-6.3l-4.544-.416a3.07,3.07,0,0,1-3.3,2.688c-2.176,0-3.744-1.664-3.744-4.576,0-2.944,1.568-4.608,3.744-4.608a3.09,3.09,0,0,1,3.264,2.784l4.576-.384C153.92,15.536,150.72,13.136,146.688,13.136Zm15.3-8h-4.672V30h4.672V20.816a3.03,3.03,0,0,1,3.072-3.328c1.792,0,2.912,1.184,2.912,3.3V30h4.672V19.888c0-4.288-2.656-6.752-6.464-6.752a5.114,5.114,0,0,0-4.192,1.728Zm29.728,18.08V21.36c0-5.152-3.136-8.224-7.9-8.224-4.928,0-8.416,3.264-8.416,8.608,0,5.312,3.488,8.608,8.544,8.608,3.872,0,7.04-2.24,7.616-5.376l-4.7-.224c-.352,1.152-1.408,1.824-3.04,1.824a3.234,3.234,0,0,1-3.456-3.36Zm-7.936-6.432c2.112,0,3.136,1.312,3.232,3.328h-6.656A3.232,3.232,0,0,1,183.776,16.784Zm19.776-3.648a5,5,0,0,0-4.448,2.016v-1.7h-4.416V30h4.672V20.816a3.03,3.03,0,0,1,3.072-3.328c1.792,0,2.912,1.184,2.912,3.3V30h4.672V19.888C210.016,15.6,207.36,13.136,203.552,13.136Zm25.536,0a5,5,0,0,0-4.448,2.016v-1.7h-4.416V30H224.9V20.816a3.03,3.03,0,0,1,3.072-3.328c1.792,0,2.912,1.184,2.912,3.3V30h4.672V19.888C235.552,15.6,232.9,13.136,229.088,13.136Zm16.64,0c-4.256,0-6.912,3.008-6.912,5.92l4.672.192a2.115,2.115,0,0,1,2.3-2.176c1.44,0,2.144.9,2.144,2.56v.64l-2.944.16c-3.52.16-6.624,1.344-6.624,5.024,0,3.2,2.176,4.9,5.5,4.9a5.726,5.726,0,0,0,4.224-1.7V30h4.512V19.792C252.608,15.44,250.176,13.136,245.728,13.136Zm2.208,10.208v.7c0,1.76-1.28,2.688-2.976,2.688-1.12,0-1.92-.416-1.92-1.5,0-1.184.992-1.664,2.4-1.728Zm16-10.208c-4.9,0-8.48,3.168-8.48,8.608,0,5.408,3.616,8.608,8.48,8.608,4.064,0,7.2-2.4,7.84-6.3l-4.544-.416a3.07,3.07,0,0,1-3.3,2.688c-2.176,0-3.744-1.664-3.744-4.576,0-2.944,1.568-4.608,3.744-4.608A3.09,3.09,0,0,1,267.2,19.92l4.576-.384C271.168,15.536,267.968,13.136,263.936,13.136Zm15.3-8H274.56V30h4.672V20.816a3.03,3.03,0,0,1,3.072-3.328c1.792,0,2.912,1.184,2.912,3.3V30h4.672V19.888c0-4.288-2.656-6.752-6.464-6.752a5.114,5.114,0,0,0-4.192,1.728Zm20.9.928V30h9.824c6.816,0,11.9-4.448,11.9-11.968S316.8,6.064,309.984,6.064Zm4.928,4.224h4.96c4.192,0,6.944,2.592,6.944,7.744s-2.784,7.744-6.944,7.744h-4.96Zm35.36,12.928V21.36c0-5.152-3.136-8.224-7.9-8.224-4.928,0-8.416,3.264-8.416,8.608,0,5.312,3.488,8.608,8.544,8.608,3.872,0,7.04-2.24,7.616-5.376l-4.7-.224c-.352,1.152-1.408,1.824-3.04,1.824a3.234,3.234,0,0,1-3.456-3.36Zm-7.936-6.432c2.112,0,3.136,1.312,3.232,3.328h-6.656A3.232,3.232,0,0,1,332.48,16.784ZM351.328,30l7.136-16.544h-5.152l-3.84,9.728L345.6,13.456h-5.152L347.584,30Zm11.2-24.768a2.814,2.814,0,0,0-2.784,2.816,2.8,2.8,0,0,0,5.6,0A2.8,2.8,0,0,0,362.528,5.232ZM364.864,30V13.456h-4.672V30Zm11.488-16.864c-4.9,0-8.48,3.168-8.48,8.608,0,5.408,3.616,8.608,8.48,8.608,4.064,0,7.2-2.4,7.84-6.3l-4.544-.416a3.07,3.07,0,0,1-3.3,2.688c-2.176,0-3.744-1.664-3.744-4.576,0-2.944,1.568-4.608,3.744-4.608a3.09,3.09,0,0,1,3.264,2.784l4.576-.384C383.584,15.536,380.384,13.136,376.352,13.136ZM402.4,23.216V21.36c0-5.152-3.136-8.224-7.9-8.224-4.928,0-8.416,3.264-8.416,8.608,0,5.312,3.488,8.608,8.544,8.608,3.872,0,7.04-2.24,7.616-5.376l-4.7-.224c-.352,1.152-1.408,1.824-3.04,1.824a3.234,3.234,0,0,1-3.456-3.36Zm-7.936-6.432c2.112,0,3.136,1.312,3.232,3.328H391.04A3.232,3.232,0,0,1,394.464,16.784Z" transform="translate(93 26)" fill="#00285a"/><line x2="1359.5" transform="translate(0.5 87.5)" fill="none" stroke="#e3e3e3" stroke-width="2"/><g transform="translate(1028 928)"><rect width="257" height="52" transform="translate(75 151)" fill="#fff"/><g transform="translate(66 151)"><path d="M87.056,45.443c0,3.458-3.332,6.665-9.683,6.665A18.539,18.539,0,0,1,69.2,50.221l1.509-2.641a14.128,14.128,0,0,0,6.79,1.7c3.018,0,4.9-1.257,4.9-3.269,0-1.509-1.132-2.515-3.71-3.018l-2.641-.629a7.92,7.92,0,0,1-4.778-2.515,4.5,4.5,0,0,1-1.006-3.018c0-3.647,3.458-6.162,8.425-6.162a15.572,15.572,0,0,1,7.859,2.012l-1.886,2.452a12.094,12.094,0,0,0-5.847-1.509c-2.452,0-4.024,1.132-4.024,2.829,0,1.32.88,1.949,3.269,2.578l2.955.692C84.541,40.413,87.056,42.3,87.056,45.443Zm26.533-5.91-2.955-.692c-2.452-.629-3.269-1.257-3.269-2.578,0-1.7,1.635-2.829,4.024-2.829a11.918,11.918,0,0,1,5.847,1.509l1.886-2.452a15.463,15.463,0,0,0-7.859-1.886c-4.967,0-8.425,2.515-8.425,6.162a4.29,4.29,0,0,0,1.006,3.018,7.909,7.909,0,0,0,4.841,2.515l2.641.629c2.578.566,3.71,1.509,3.71,3.018,0,2.075-1.823,3.269-4.9,3.269a14.822,14.822,0,0,1-6.728-1.7l-1.509,2.641a18.342,18.342,0,0,0,8.174,1.886c6.35,0,9.683-3.207,9.683-6.665C119.688,42.3,117.173,40.413,113.59,39.533ZM92.527,51.668h4.213V30.919H92.527Zm29.3-17.919h6.287V51.668h4.15V33.811h6.225l.566-2.892H121.889v2.829Zm60.8,6.539,6.287-9.431h-4.9l-3.9,6.476-3.961-6.413h-5.03l6.665,9.62L170.177,51.73h5.093l4.967-8.237,5.156,8.237h4.9ZM154.835,46.7l3.647,4.967h-4.9l-2.138-3.207a23.639,23.639,0,0,0-4.213-5.156,2.227,2.227,0,0,0-1.635-.629V51.73h-4.087V30.919h7.608c5.533,0,8.111,2.7,8.111,5.973a5.742,5.742,0,0,1-5.722,5.722h-.44A16.7,16.7,0,0,1,154.835,46.7Zm-3.018-7.293a3.256,3.256,0,0,0,1.132-2.515c0-2.138-1.383-3.207-5.03-3.207h-2.326v6.6h2.138a6.4,6.4,0,0,0,4.087-.88ZM162.946,51.73h4.213V30.919h-4.275Zm75.324,15.4L226.009,54.874a17.341,17.341,0,1,1,3.018-3.081l12.323,12.323ZM215.384,55.063a13.77,13.77,0,1,0-13.77-13.77,13.766,13.766,0,0,0,13.77,13.77Z" transform="translate(-9.2 -24.177)" fill="#eee"/></g></g><path d="M31.563,27.669l-6.231-6.231A1.5,1.5,0,0,0,24.269,21H23.25A12.994,12.994,0,1,0,21,23.25v1.019a1.5,1.5,0,0,0,.438,1.063l6.231,6.231a1.494,1.494,0,0,0,2.119,0l1.769-1.769A1.507,1.507,0,0,0,31.563,27.669ZM13,21a8,8,0,1,1,8-8A8,8,0,0,1,13,21Z" transform="translate(32 29)" fill="#1269d3"/><g transform="translate(2.5 -4.5)"><line x1="96" transform="translate(398 869.5)" fill="none" stroke="#bbb" stroke-width="2"/><path d="M14.875,2.5H2.625A2.626,2.626,0,0,0,0,5.125v22.75A2.626,2.626,0,0,0,2.625,30.5h12.25A2.626,2.626,0,0,0,17.5,27.875V5.125A2.626,2.626,0,0,0,14.875,2.5ZM8.75,28.75A1.75,1.75,0,1,1,10.5,27,1.748,1.748,0,0,1,8.75,28.75Zm6.125-5.906a.658.658,0,0,1-.656.656H3.281a.658.658,0,0,1-.656-.656V5.781a.658.658,0,0,1,.656-.656H14.219a.658.658,0,0,1,.656.656ZM37.064,7.094l6.508,16.242L50.08,7.094h3.4V27H50.859V19.248l.246-8.367L44.57,27h-2.01L36.039,10.922l.26,8.326V27H33.674V7.094ZM57.053,19.467a8.738,8.738,0,0,1,.854-3.91,6.374,6.374,0,0,1,2.379-2.68,6.476,6.476,0,0,1,3.479-.943,6.238,6.238,0,0,1,4.888,2.092A8.048,8.048,0,0,1,70.52,19.59v.178a8.814,8.814,0,0,1-.827,3.876,6.281,6.281,0,0,1-2.365,2.673,6.55,6.55,0,0,1-3.534.957,6.223,6.223,0,0,1-4.874-2.092,8.007,8.007,0,0,1-1.866-5.537Zm2.543.3a6.329,6.329,0,0,0,1.142,3.951,3.869,3.869,0,0,0,6.118-.021,6.92,6.92,0,0,0,1.135-4.231,6.318,6.318,0,0,0-1.155-3.944,3.673,3.673,0,0,0-3.069-1.511,3.632,3.632,0,0,0-3.021,1.49A6.869,6.869,0,0,0,59.6,19.768Zm26.619,0a8.8,8.8,0,0,1-1.559,5.448,4.98,4.98,0,0,1-4.184,2.058,5.157,5.157,0,0,1-4.334-1.982L76.016,27H73.691V6h2.529v7.834a5.128,5.128,0,0,1,4.225-1.9,5.01,5.01,0,0,1,4.231,2.037,9.06,9.06,0,0,1,1.538,5.578Zm-2.529-.287a6.835,6.835,0,0,0-1-3.992,3.3,3.3,0,0,0-2.871-1.408,3.713,3.713,0,0,0-3.6,2.324v6.4a3.817,3.817,0,0,0,3.623,2.324,3.286,3.286,0,0,0,2.83-1.408A7.268,7.268,0,0,0,83.686,19.48ZM92.148,27H89.619V12.207h2.529ZM89.414,8.283a1.51,1.51,0,0,1,.376-1.039A1.412,1.412,0,0,1,90.9,6.82a1.434,1.434,0,0,1,1.121.424,1.494,1.494,0,0,1,.383,1.039,1.445,1.445,0,0,1-.383,1.025,1.46,1.46,0,0,1-1.121.41,1.437,1.437,0,0,1-1.114-.41A1.46,1.46,0,0,1,89.414,8.283ZM98.943,27H96.414V6h2.529Zm10.186.273a6.463,6.463,0,0,1-4.895-1.976,7.332,7.332,0,0,1-1.887-5.284v-.465a8.877,8.877,0,0,1,.841-3.931,6.559,6.559,0,0,1,2.352-2.707,5.912,5.912,0,0,1,3.274-.978,5.54,5.54,0,0,1,4.484,1.9,8.228,8.228,0,0,1,1.6,5.441v1.053H104.877a5.258,5.258,0,0,0,1.278,3.534,4.018,4.018,0,0,0,3.11,1.347,4.405,4.405,0,0,0,2.27-.547,5.7,5.7,0,0,0,1.627-1.449l1.545,1.2A6.212,6.212,0,0,1,109.129,27.273Zm-.314-13.262a3.374,3.374,0,0,0-2.57,1.114,5.416,5.416,0,0,0-1.285,3.124h7.41v-.191a4.817,4.817,0,0,0-1.039-2.987A3.176,3.176,0,0,0,108.814,14.012Zm8.928,11.662a1.584,1.584,0,0,1,.39-1.094,1.485,1.485,0,0,1,1.169-.437,1.529,1.529,0,0,1,1.183.438,1.552,1.552,0,0,1,.4,1.094,1.468,1.468,0,0,1-.4,1.053,1.557,1.557,0,0,1-1.183.424,1.406,1.406,0,0,1-1.559-1.477Zm.014-12.072a1.584,1.584,0,0,1,.39-1.094,1.485,1.485,0,0,1,1.169-.437,1.529,1.529,0,0,1,1.183.438,1.552,1.552,0,0,1,.4,1.094,1.468,1.468,0,0,1-.4,1.053,1.557,1.557,0,0,1-1.183.424,1.406,1.406,0,0,1-1.559-1.477Z" transform="translate(177.5 852.5)" fill="#111"/><path d="M11.58,7.08V9.227h-.465a6.66,6.66,0,0,0-4.7,1.75,7.282,7.282,0,0,0-2.023,4.771,5.4,5.4,0,0,1,4.293-1.8,5.162,5.162,0,0,1,4.149,1.832,7.066,7.066,0,0,1,1.552,4.73,7.044,7.044,0,0,1-1.675,4.922,5.767,5.767,0,0,1-4.491,1.846,5.682,5.682,0,0,1-4.635-2.194A8.7,8.7,0,0,1,1.8,19.426v-.971q0-5.5,2.345-8.4T11.129,7.08ZM8.258,16.049a4.035,4.035,0,0,0-2.393.779,4.061,4.061,0,0,0-1.518,1.955v.93a6.53,6.53,0,0,0,1.107,3.965,3.319,3.319,0,0,0,2.762,1.5A3.216,3.216,0,0,0,10.9,23.924a5.219,5.219,0,0,0,.978-3.295,5.221,5.221,0,0,0-.991-3.315A3.177,3.177,0,0,0,8.258,16.049Zm19.8,4.266h2.762v2.064H28.055V27H25.512V22.379H16.447v-1.49L25.361,7.094h2.693Zm-8.736,0h6.193V10.553l-.3.547Zm13.959,10.65-1.436-.984a6.6,6.6,0,0,0,1.34-3.691V24.006h2.475v1.982a6.227,6.227,0,0,1-.677,2.762A6.466,6.466,0,0,1,33.277,30.965ZM46.908,27H44.365V10.143l-5.1,1.873v-2.3L46.512,7h.4ZM54.1,10.922a4.039,4.039,0,0,1,1.142-2.953,4.289,4.289,0,0,1,5.879.007A4.179,4.179,0,0,1,62.248,11v.971a3.987,3.987,0,0,1-1.142,2.946A3.936,3.936,0,0,1,58.2,16.063a4.022,4.022,0,0,1-2.939-1.142A4.071,4.071,0,0,1,54.1,11.879Zm1.887,1.047a2.587,2.587,0,0,0,.6,1.761,2.03,2.03,0,0,0,1.613.692,1.99,1.99,0,0,0,1.565-.671,2.672,2.672,0,0,0,.595-1.836v-1a2.652,2.652,0,0,0-.588-1.768,2.18,2.18,0,0,0-3.2,0,2.735,2.735,0,0,0-.588,1.823Zm7.807,10.15a4.016,4.016,0,0,1,1.142-2.946,4.318,4.318,0,0,1,5.872-.007,4.121,4.121,0,0,1,1.148,3.049v.971a4.016,4.016,0,0,1-1.142,2.946,3.928,3.928,0,0,1-2.919,1.155,4.022,4.022,0,0,1-2.939-1.142A4.071,4.071,0,0,1,63.793,23.1ZM65.68,23.18a2.607,2.607,0,0,0,.6,1.774,2.03,2.03,0,0,0,1.613.692,1.976,1.976,0,0,0,1.572-.678,2.718,2.718,0,0,0,.588-1.843V22.111a2.6,2.6,0,0,0-.595-1.768,2.186,2.186,0,0,0-3.172-.007,2.638,2.638,0,0,0-.608,1.829Zm-6.9,2.316-1.436-.9L67.061,9.035l1.436.9Z" transform="translate(309.5 852.5)" fill="#888"/></g><g transform="translate(332 112)"><line x1="130.5" transform="translate(574 201.5)" fill="none" stroke="#bbb" stroke-width="2"/><path d="M28.875,2.5H2.625A2.626,2.626,0,0,0,0,5.125v15.75A2.626,2.626,0,0,0,2.625,23.5h26.25A2.626,2.626,0,0,0,31.5,20.875V5.125A2.626,2.626,0,0,0,28.875,2.5Zm-.328,18.375H2.953a.329.329,0,0,1-.328-.328V5.453a.329.329,0,0,1,.328-.328H28.547a.329.329,0,0,1,.328.328V20.547A.329.329,0,0,1,28.547,20.875Zm-2.3,8.313a1.309,1.309,0,0,0-1.312-1.312H19.545l-1.017-3.052a.654.654,0,0,0-.623-.448H13.6a.654.654,0,0,0-.623.448L11.96,27.875h-5.4a1.313,1.313,0,0,0,0,2.625H24.938A1.309,1.309,0,0,0,26.25,29.188ZM47.674,27V7.094h5.619a9.046,9.046,0,0,1,4.594,1.148A7.767,7.767,0,0,1,60.97,11.51a10.636,10.636,0,0,1,1.1,4.867v1.271a10.673,10.673,0,0,1-1.087,4.936,7.645,7.645,0,0,1-3.1,3.254A9.622,9.622,0,0,1,53.184,27ZM50.3,9.24V24.854h2.762a6.009,6.009,0,0,0,4.724-1.888,7.8,7.8,0,0,0,1.688-5.378V16.424a7.926,7.926,0,0,0-1.593-5.275A5.668,5.668,0,0,0,53.361,9.24ZM71.777,27.273A6.463,6.463,0,0,1,66.883,25.3,7.332,7.332,0,0,1,65,20.014v-.465a8.877,8.877,0,0,1,.841-3.931,6.559,6.559,0,0,1,2.352-2.707,5.912,5.912,0,0,1,3.274-.978,5.54,5.54,0,0,1,4.484,1.9,8.228,8.228,0,0,1,1.6,5.441v1.053H67.525A5.258,5.258,0,0,0,68.8,23.862a4.018,4.018,0,0,0,3.11,1.347,4.405,4.405,0,0,0,2.27-.547,5.7,5.7,0,0,0,1.627-1.449l1.545,1.2A6.212,6.212,0,0,1,71.777,27.273Zm-.314-13.262a3.374,3.374,0,0,0-2.57,1.114,5.416,5.416,0,0,0-1.285,3.124h7.41v-.191a4.817,4.817,0,0,0-1.039-2.987A3.176,3.176,0,0,0,71.463,14.012Zm17.623,9.064a1.862,1.862,0,0,0-.772-1.593,7.435,7.435,0,0,0-2.693-.978,12.734,12.734,0,0,1-3.049-.984A4.337,4.337,0,0,1,80.9,18.154a3.27,3.27,0,0,1-.54-1.887A3.837,3.837,0,0,1,81.9,13.191a6.007,6.007,0,0,1,3.931-1.258,6.181,6.181,0,0,1,4.081,1.3,4.125,4.125,0,0,1,1.565,3.322H88.936a2.283,2.283,0,0,0-.882-1.791,3.3,3.3,0,0,0-2.222-.752,3.458,3.458,0,0,0-2.16.6,1.894,1.894,0,0,0-.779,1.572,1.534,1.534,0,0,0,.725,1.381,8.915,8.915,0,0,0,2.618.889A13.642,13.642,0,0,1,89.3,19.467a4.477,4.477,0,0,1,1.743,1.415,3.479,3.479,0,0,1,.567,2.017,3.786,3.786,0,0,1-1.586,3.179,6.652,6.652,0,0,1-4.115,1.2,7.449,7.449,0,0,1-3.145-.629,5.114,5.114,0,0,1-2.14-1.757,4.234,4.234,0,0,1-.772-2.44h2.529a2.619,2.619,0,0,0,1.019,2.017,3.951,3.951,0,0,0,2.509.745,4.079,4.079,0,0,0,2.3-.581A1.785,1.785,0,0,0,89.086,23.076Zm9.953-2.926L97.453,21.8V27H94.924V6h2.529V18.7l1.354-1.627,4.607-4.867h3.076l-5.756,6.18L107.16,27h-2.967ZM112.533,8.625v3.582h2.762v1.955h-2.762v9.185a2.053,2.053,0,0,0,.369,1.335,1.554,1.554,0,0,0,1.258.445,6.124,6.124,0,0,0,1.2-.164V27a7.376,7.376,0,0,1-1.941.272,3.15,3.15,0,0,1-2.557-1.025A4.405,4.405,0,0,1,110,23.336V14.162h-2.693V12.207H110V8.625ZM117.3,19.467a8.737,8.737,0,0,1,.854-3.91,6.374,6.374,0,0,1,2.379-2.68,6.476,6.476,0,0,1,3.479-.943,6.238,6.238,0,0,1,4.888,2.092,8.048,8.048,0,0,1,1.866,5.564v.178a8.814,8.814,0,0,1-.827,3.876,6.281,6.281,0,0,1-2.365,2.673,6.55,6.55,0,0,1-3.534.957,6.223,6.223,0,0,1-4.874-2.092,8.007,8.007,0,0,1-1.866-5.537Zm2.543.3a6.329,6.329,0,0,0,1.142,3.951,3.869,3.869,0,0,0,6.118-.021,6.92,6.92,0,0,0,1.135-4.231,6.318,6.318,0,0,0-1.155-3.944,3.673,3.673,0,0,0-3.069-1.511A3.632,3.632,0,0,0,121,15.5,6.869,6.869,0,0,0,119.848,19.768Zm26.592,0a8.858,8.858,0,0,1-1.545,5.441,4.952,4.952,0,0,1-4.184,2.064,5.425,5.425,0,0,1-4.238-1.709v7.123h-2.529V12.207h2.311l.123,1.641a5.21,5.21,0,0,1,4.293-1.914,5.044,5.044,0,0,1,4.218,2.01,8.954,8.954,0,0,1,1.552,5.592Zm-2.529-.287a6.536,6.536,0,0,0-1.066-3.951,3.435,3.435,0,0,0-2.926-1.449,3.718,3.718,0,0,0-3.445,2.037v7.068a3.725,3.725,0,0,0,3.473,2.023,3.419,3.419,0,0,0,2.892-1.442A7.135,7.135,0,0,0,143.91,19.48Zm5.66,6.193a1.584,1.584,0,0,1,.39-1.094,1.485,1.485,0,0,1,1.169-.437,1.529,1.529,0,0,1,1.183.438,1.552,1.552,0,0,1,.4,1.094,1.468,1.468,0,0,1-.4,1.053,1.557,1.557,0,0,1-1.183.424,1.406,1.406,0,0,1-1.559-1.477Zm.014-12.072a1.584,1.584,0,0,1,.39-1.094,1.485,1.485,0,0,1,1.169-.437,1.529,1.529,0,0,1,1.183.438,1.552,1.552,0,0,1,.4,1.094,1.468,1.468,0,0,1-.4,1.053,1.557,1.557,0,0,1-1.183.424,1.406,1.406,0,0,1-1.559-1.477Z" transform="translate(722 184)" fill="#111"/><path d="M5.332,15.816h1.9a4.177,4.177,0,0,0,2.816-.943A3.152,3.152,0,0,0,11.074,12.4q0-3.5-3.486-3.5a3.626,3.626,0,0,0-2.618.937,3.278,3.278,0,0,0-.978,2.481H1.463A5.078,5.078,0,0,1,3.192,8.386a6.3,6.3,0,0,1,4.4-1.565A6.226,6.226,0,0,1,12,8.311a5.383,5.383,0,0,1,1.6,4.143,4.37,4.37,0,0,1-.841,2.516,5.077,5.077,0,0,1-2.29,1.818,4.892,4.892,0,0,1,2.536,1.723,4.784,4.784,0,0,1,.9,2.939,5.43,5.43,0,0,1-1.75,4.252A6.553,6.553,0,0,1,7.6,27.273a6.726,6.726,0,0,1-4.56-1.518A5.034,5.034,0,0,1,1.285,21.75H3.828a3.254,3.254,0,0,0,1.025,2.516,3.9,3.9,0,0,0,2.748.943,3.827,3.827,0,0,0,2.8-.957,3.688,3.688,0,0,0,.971-2.748,3.347,3.347,0,0,0-1.066-2.666,4.646,4.646,0,0,0-3.076-.957h-1.9Zm13.207,1.2,1.012-9.926h10.2V9.432H21.7l-.6,5.428A6.424,6.424,0,0,1,24.418,14a5.492,5.492,0,0,1,4.32,1.8,7.046,7.046,0,0,1,1.6,4.86A6.8,6.8,0,0,1,28.677,25.5a6.054,6.054,0,0,1-4.642,1.771,6.292,6.292,0,0,1-4.307-1.463,5.839,5.839,0,0,1-1.9-4.047h2.393a4.017,4.017,0,0,0,1.217,2.577,3.783,3.783,0,0,0,2.6.868,3.413,3.413,0,0,0,2.769-1.2,5.03,5.03,0,0,0,1-3.322,4.616,4.616,0,0,0-1.087-3.206,3.7,3.7,0,0,0-2.892-1.21,4.17,4.17,0,0,0-2.6.725l-.67.547ZM33.277,30.965l-1.436-.984a6.6,6.6,0,0,0,1.34-3.691V24.006h2.475v1.982a6.227,6.227,0,0,1-.677,2.762A6.466,6.466,0,0,1,33.277,30.965ZM48.289,18.25A6.189,6.189,0,0,1,46.4,19.768a5.137,5.137,0,0,1-2.413.574,5.3,5.3,0,0,1-3-.848,5.511,5.511,0,0,1-1.976-2.386,8.133,8.133,0,0,1-.7-3.4,8.287,8.287,0,0,1,.759-3.6,5.574,5.574,0,0,1,2.153-2.447,6.14,6.14,0,0,1,3.254-.848A5.559,5.559,0,0,1,49.13,9.028a9.631,9.631,0,0,1,1.7,6.022v.738q0,5.811-2.3,8.483T41.6,27.014h-.492V24.867h.533a6.963,6.963,0,0,0,4.813-1.63A7,7,0,0,0,48.289,18.25Zm-3.9,0a3.906,3.906,0,0,0,2.345-.779A4.594,4.594,0,0,0,48.3,15.543V14.531a6.96,6.96,0,0,0-1.08-4.047,3.3,3.3,0,0,0-5.414-.28,5.273,5.273,0,0,0-1.012,3.37,5.488,5.488,0,0,0,.978,3.356A3.1,3.1,0,0,0,44.393,18.25ZM54.1,10.922a4.039,4.039,0,0,1,1.142-2.953,4.289,4.289,0,0,1,5.879.007A4.179,4.179,0,0,1,62.248,11v.971a3.987,3.987,0,0,1-1.142,2.946A3.936,3.936,0,0,1,58.2,16.063a4.022,4.022,0,0,1-2.939-1.142A4.071,4.071,0,0,1,54.1,11.879Zm1.887,1.047a2.587,2.587,0,0,0,.6,1.761,2.03,2.03,0,0,0,1.613.692,1.99,1.99,0,0,0,1.565-.671,2.672,2.672,0,0,0,.595-1.836v-1a2.652,2.652,0,0,0-.588-1.768,2.18,2.18,0,0,0-3.2,0,2.735,2.735,0,0,0-.588,1.823Zm7.807,10.15a4.016,4.016,0,0,1,1.142-2.946,4.318,4.318,0,0,1,5.872-.007,4.121,4.121,0,0,1,1.148,3.049v.971a4.016,4.016,0,0,1-1.142,2.946,3.928,3.928,0,0,1-2.919,1.155,4.022,4.022,0,0,1-2.939-1.142A4.071,4.071,0,0,1,63.793,23.1ZM65.68,23.18a2.607,2.607,0,0,0,.6,1.774,2.03,2.03,0,0,0,1.613.692,1.976,1.976,0,0,0,1.572-.678,2.718,2.718,0,0,0,.588-1.843V22.111a2.6,2.6,0,0,0-.595-1.768,2.186,2.186,0,0,0-3.172-.007,2.638,2.638,0,0,0-.608,1.829Zm-6.9,2.316-1.436-.9L67.061,9.035l1.436.9Z" transform="translate(885 185)" fill="#888"/></g><g transform="translate(-10.762 -125.24)"><path d="M587.762,725.792h0a208.954,208.954,0,0,0,46.975-132.175c0-115.777-94.19-209.966-209.966-209.966-2.048,0-4.073.1-6.108.154h0" transform="translate(265.99 107.122)" fill="none"/><path d="M418.661,353.349" transform="translate(265.983 0.12)" fill="#166bd2"/><path d="M424.771,490.773c115.776,0,209.966,94.19,209.966,209.966a208.955,208.955,0,0,1-46.975,132.175l104.471,89.305A345.827,345.827,0,0,0,772.2,700.739c0-191.57-155.855-347.424-347.424-347.424-2.048,0-4.069.118-6.108.154V490.927C420.7,490.868,422.723,490.773,424.771,490.773Z" transform="translate(265.99 0)" fill="#166bd2"/><line transform="translate(684.653 490.927)" fill="#c02"/><line transform="translate(853.75 832.913)" fill="#c02"/><path d="M418.669,353.349h0Z" transform="translate(265.984 0.119)" fill="#c02"/><line transform="translate(958.222 922.219)" fill="#c02"/><path d="M958.224,922.1,853.753,832.794A212.13,212.13,0,0,1,830.3,857.335c-.335.294-.68.584-1.019.879q-3.6,3.167-7.336,6.171c-.589.476-1.187.933-1.781,1.4q-3.439,2.7-6.982,5.256-1.067.775-2.152,1.531-3.48,2.447-7.064,4.744c-.747.481-1.491.965-2.247,1.437-2.5,1.563-5.034,3.063-7.6,4.522-.648.367-1.282.752-1.935,1.115q-4.595,2.542-9.316,4.866c-.163.082-.317.168-.476.245q-5.159,2.515-10.472,4.753l-.1.041c-3.331,1.4-6.706,2.7-10.118,3.928-.965.349-1.944.657-2.918.992-2.506.861-5.021,1.695-7.572,2.461-1.25.376-2.515.72-3.779,1.078-2.311.648-4.626,1.264-6.969,1.835-1.387.34-2.787.657-4.182.97q-3.405.754-6.851,1.4c-1.445.272-2.886.539-4.341.779-2.334.385-4.685.711-7.041,1.02-1.423.186-2.837.385-4.264.544-2.565.281-5.147.485-7.735.671-1.237.091-2.465.213-3.711.281-3.829.208-7.685.335-11.568.335-115.776,0-209.966-94.19-209.966-209.966q0-5.383.272-10.7c.059-1.187.186-2.361.267-3.543.159-2.343.3-4.685.535-7.005.145-1.454.362-2.886.539-4.332.249-2.025.471-4.06.775-6.072.24-1.563.548-3.108.82-4.662.326-1.858.621-3.725,1-5.564.335-1.649.743-3.276,1.115-4.912.394-1.713.757-3.435,1.187-5.134s.947-3.4,1.427-5.093c.449-1.586.865-3.185,1.35-4.758.544-1.762,1.155-3.494,1.745-5.234.5-1.472.965-2.954,1.5-4.409.652-1.8,1.373-3.575,2.075-5.351.535-1.359,1.042-2.723,1.6-4.065.77-1.84,1.6-3.639,2.42-5.451.566-1.246,1.106-2.506,1.695-3.743.888-1.858,1.831-3.679,2.769-5.505.589-1.146,1.156-2.3,1.763-3.435,1.015-1.89,2.089-3.743,3.158-5.6.589-1.024,1.16-2.066,1.772-3.081,1.146-1.912,2.347-3.783,3.552-5.655.589-.92,1.164-1.849,1.767-2.755,1.287-1.93,2.623-3.82,3.969-5.7.575-.8,1.137-1.618,1.722-2.415,1.427-1.939,2.909-3.838,4.4-5.727.553-.7,1.092-1.414,1.654-2.107,1.572-1.935,3.194-3.829,4.83-5.709.53-.6,1.042-1.219,1.573-1.817,1.722-1.926,3.489-3.811,5.279-5.673.485-.512.965-1.028,1.459-1.531,1.871-1.917,3.793-3.779,5.737-5.619.439-.421.874-.847,1.318-1.26,2.021-1.885,4.087-3.716,6.181-5.519.4-.34.793-.689,1.192-1.029q3.256-2.76,6.629-5.379c.349-.272.689-.548,1.033-.816q3.473-2.671,7.064-5.2c.3-.209.594-.426.9-.634q3.691-2.576,7.495-4.993c.245-.154.485-.313.725-.467q3.9-2.46,7.916-4.749c.19-.109.385-.222.58-.335q4.1-2.325,8.315-4.463l.426-.222q4.289-2.168,8.691-4.146l.294-.131q4.465-2.005,9.04-3.793l.181-.073q4.628-1.815,9.366-3.407l.068-.027a208.847,208.847,0,0,1,60.727-10.811V353.349h-.009a345.554,345.554,0,0,0-190.913,61.334l-.1.073q-6.729,4.649-13.227,9.606c-.127.1-.249.2-.376.3q-6.341,4.846-12.456,9.978c-.235.2-.467.408-.7.612q-5.927,5-11.632,10.254c-.34.313-.666.643-1.006.961q-5.505,5.118-10.793,10.458c-.453.462-.888.943-1.337,1.4q-5.07,5.193-9.932,10.576c-.544.6-1.06,1.232-1.595,1.84-3.1,3.5-6.149,7.037-9.1,10.662-.634.775-1.232,1.577-1.858,2.361-2.809,3.5-5.582,7.032-8.256,10.644-.711.965-1.382,1.957-2.08,2.927-2.528,3.484-5.03,6.992-7.427,10.571-.775,1.155-1.5,2.347-2.252,3.512-2.256,3.453-4.495,6.919-6.625,10.453-.825,1.364-1.586,2.769-2.388,4.146-1.985,3.4-3.969,6.8-5.841,10.272-.852,1.581-1.636,3.2-2.46,4.8-1.731,3.33-3.471,6.656-5.093,10.046-.861,1.8-1.64,3.643-2.469,5.456-1.491,3.253-3,6.493-4.386,9.8-.847,2.012-1.6,4.073-2.415,6.108-1.264,3.167-2.556,6.326-3.725,9.538-.811,2.229-1.522,4.5-2.288,6.751-1.051,3.081-2.139,6.144-3.108,9.262-.761,2.465-1.414,4.984-2.125,7.472-.843,2.959-1.736,5.9-2.5,8.881-.693,2.705-1.264,5.455-1.894,8.183-.653,2.832-1.364,5.646-1.944,8.5-.6,2.954-1.074,5.954-1.6,8.935-.471,2.683-1.011,5.342-1.423,8.047-.5,3.263-.852,6.575-1.26,9.865-.3,2.469-.68,4.916-.933,7.4-.385,3.815-.616,7.671-.879,11.523-.136,2-.349,3.983-.449,5.995q-.449,8.822-.453,17.758c0,191.57,155.855,347.424,347.424,347.424,5.519,0,11-.163,16.462-.417.7-.036,1.409-.054,2.111-.091,5.175-.276,10.313-.68,15.42-1.178.92-.09,1.84-.177,2.755-.276q7.551-.8,15.007-1.912c.875-.131,1.745-.272,2.615-.412,5.061-.8,10.1-1.681,15.08-2.7.548-.109,1.092-.24,1.64-.353q7.388-1.543,14.663-3.394c.439-.109.888-.208,1.328-.322,4.889-1.269,9.729-2.664,14.532-4.137.866-.267,1.735-.526,2.6-.8q6.906-2.175,13.689-4.64,1.468-.53,2.927-1.078,6.722-2.5,13.317-5.261c.874-.363,1.735-.748,2.605-1.119,4.508-1.939,8.985-3.947,13.4-6.067.467-.226.924-.467,1.391-.693q6.212-3.031,12.284-6.3c.8-.426,1.6-.843,2.4-1.278,4.083-2.234,8.1-4.563,12.085-6.956,1.01-.607,2.021-1.21,3.022-1.826q5.8-3.561,11.441-7.34c1.011-.68,2.016-1.368,3.022-2.057,3.761-2.578,7.481-5.206,11.129-7.92.852-.634,1.686-1.287,2.528-1.926q5.077-3.847,10-7.871c.748-.607,1.5-1.21,2.243-1.831,3.4-2.818,6.724-5.723,10.009-8.673.92-.82,1.849-1.636,2.755-2.469q4.873-4.466,9.565-9.121,1.468-1.448,2.914-2.909,4.615-4.669,9.062-9.506c.888-.965,1.758-1.948,2.633-2.922C952.4,928.941,955.351,925.557,958.224,922.1Z" transform="translate(0 0.12)" fill="#c02"/></g></svg>